<svg id="a5f91d4d-7d07-4bfd-8326-3f1f91122881" data-name="Layer 1" xmlns="http://www.w3.org/2000/svg" width="4.72778in" height="0.50338in" viewBox="0 0 340.40048 36.24316"><defs><style>.e5ffbe9e-cd24-40f6-a084-4a1aa9572b7d{fill:#231f20;}.aa5b1e68-b323-426b-9a8b-c075c298daa4{fill:#9d9795;}.b411072e-90bb-49df-a650-c1138d93fcb6{fill:#cfb991;}</style></defs><title>CEI_H-Full-RGB_1</title><path class="e5ffbe9e-cd24-40f6-a084-4a1aa9572b7d" d="M207.96446,13.21436a2.17551,2.17551,0,0,1-2.167,2.25586c-2.0791,0-2.28809-1.94727-2.28809-3.873,0-2.332.66016-3.81738,2.36524-3.81738a2.0449,2.0449,0,0,1,2.0791,2.24414h-1.15527C206.7877,9.771,206.7545,8.77,205.86388,8.77c-.957,0-1.15528,1.23242-1.15528,2.84961,0,1.46289.1543,2.87109,1.11133,2.87109.85742,0,.957-.957.99024-1.27636Z"/><path class="e5ffbe9e-cd24-40f6-a084-4a1aa9572b7d" d="M209.79063,12.79639c0,.84765.1211,1.706.90137,1.706a.84155.84155,0,0,0,.84766-.83691h1.09961a1.885,1.885,0,0,1-1.96875,1.79394c-1.77149,0-2.02442-1.541-2.02442-2.96,0-1.793.66016-2.90429,2.05762-2.90429,1.59473,0,1.97949,1.23242,1.97949,2.68457,0,.165-.01074.40722-.02148.5166Zm1.75977-.83594c0-.69336-.11035-1.41894-.84668-1.41894-.84766,0-.8916,1.01171-.90234,1.41894Z"/><path class="e5ffbe9e-cd24-40f6-a084-4a1aa9572b7d" d="M213.607,11.60889c0-.91309,0-1.50781-.01074-1.915h1.08887a9.54617,9.54617,0,0,1,.0332.958,1.46047,1.46047,0,0,1,1.48535-1.0459v1.26562c-.93555,0-1.45312.38477-1.45312,1.44141v3.03613H213.607Z"/><path class="e5ffbe9e-cd24-40f6-a084-4a1aa9572b7d" d="M216.65294,9.69385h.75976V8.25342h1.13282V9.69385h.91308v.94629h-.91308v3.30078c0,.35254.0664.5498.48437.5498a1.64872,1.64872,0,0,0,.34082-.02148v.84668a2.01293,2.01293,0,0,1-.748.11035c-.8252,0-1.21-.30859-1.21-1.28711v-3.499h-.75976Z"/><path class="e5ffbe9e-cd24-40f6-a084-4a1aa9572b7d" d="M220.17345,9.69385H221.317v5.65527h-1.14355Zm.01074-.91309V7.52686h1.14453v1.2539Z"/><path class="e5ffbe9e-cd24-40f6-a084-4a1aa9572b7d" d="M222.70372,15.34912v-4.709h-.68262V9.69385h.68262V9.0669c0-.91309.39551-1.60547,1.48438-1.60547a2.14792,2.14792,0,0,1,.50683.05468v.96778a1.56034,1.56034,0,0,0-.33008-.03321c-.39648,0-.51758.23145-.51758.68262v.56055h.83594v.94629h-.83594v4.709Z"/><path class="e5ffbe9e-cd24-40f6-a084-4a1aa9572b7d" d="M225.35411,9.69385h1.14356v5.65527h-1.14356Zm.01074-.91309V7.52686h1.14453v1.2539Z"/><path class="e5ffbe9e-cd24-40f6-a084-4a1aa9572b7d" d="M231.36,13.50049a1.83544,1.83544,0,0,1-1.9248,1.94727c-1.57325,0-1.98047-1.29786-1.98047-2.96973,0-1.5293.50586-2.88281,2.0459-2.88281A1.76526,1.76526,0,0,1,231.36,11.47705H230.2047c-.01075-.2207-.05469-.93554-.71485-.93554-.64941,0-.87988.72558-.87988,1.94726,0,1.27637.23047,2.00195.8584,2.00195.68164,0,.74805-.68164.78027-.99023Z"/><path class="e5ffbe9e-cd24-40f6-a084-4a1aa9572b7d" d="M235.82579,14.19385c0,.30859.0332.92383.04395,1.15527h-1.03418a3.80938,3.80938,0,0,1-.05469-.56152,1.34316,1.34316,0,0,1-1.29883.66016,1.49378,1.49378,0,0,1-1.49609-1.66114c0-1.12207.7705-1.84765,2.22265-1.84765a3.49129,3.49129,0,0,1,.50586.02148v-.6709c0-.36328-.0664-.80273-.69336-.80273-.63769,0-.7041.42871-.73633.80273h-1.07812a1.61572,1.61572,0,0,1,1.8584-1.69433c1.167,0,1.76074.5498,1.76074,1.61718Zm-1.08887-1.39746a2.96908,2.96908,0,0,0-.47363-.02149c-.82519,0-1.14355.39551-1.14355.91309a.72908.72908,0,0,0,.72558.82519c.71485,0,.8916-.52832.8916-1.48535Z"/><path class="e5ffbe9e-cd24-40f6-a084-4a1aa9572b7d" d="M236.41856,9.69385h.75977V8.25342h1.13281V9.69385h.91309v.94629h-.91309v3.30078c0,.35254.06641.5498.48438.5498a1.64882,1.64882,0,0,0,.34082-.02148v.84668a2.013,2.013,0,0,1-.748.11035c-.82519,0-1.21-.30859-1.21-1.28711v-3.499h-.75977Z"/><path class="e5ffbe9e-cd24-40f6-a084-4a1aa9572b7d" d="M240.819,12.79639c0,.84765.1211,1.706.90235,1.706a.84055.84055,0,0,0,.84668-.83691h1.10058a1.88613,1.88613,0,0,1-1.96972,1.79394c-1.77051,0-2.02442-1.541-2.02442-2.96,0-1.793.66016-2.90429,2.05762-2.90429,1.5957,0,1.98047,1.23242,1.98047,2.68457,0,.165-.01074.40722-.02246.5166Zm1.76075-.83594c0-.69336-.11035-1.41894-.84766-1.41894-.84668,0-.89062,1.01171-.90234,1.41894Z"/><path class="e5ffbe9e-cd24-40f6-a084-4a1aa9572b7d" d="M246.70372,9.69385h1.14355v5.65527h-1.14355Zm.01074-.91309V7.52686H247.859v1.2539Z"/><path class="e5ffbe9e-cd24-40f6-a084-4a1aa9572b7d" d="M249.068,11.45459c0-1.166,0-1.47461-.01074-1.76074h1.10058a4.86287,4.86287,0,0,1,.03223.63867,1.3273,1.3273,0,0,1,1.28808-.7373c.87989,0,1.45215.53906,1.45215,1.71679v4.03711h-1.14453V11.56494c0-.60547-.1543-.99023-.71484-.99023-.59473,0-.8584.35156-.8584,1.32031v3.4541H249.068Z"/><path class="e5ffbe9e-cd24-40f6-a084-4a1aa9572b7d" d="M259.84825,11.94971h-2.41992v2.39844h2.70605l-.14257,1.001h-3.708v-7.459h3.68555V8.91358h-2.541V10.937h2.41992Z"/><path class="e5ffbe9e-cd24-40f6-a084-4a1aa9572b7d" d="M260.88243,11.45459c0-1.166,0-1.47461-.01074-1.76074h1.09961a4.66931,4.66931,0,0,1,.0332.63867,1.32572,1.32572,0,0,1,1.28711-.7373c.87988,0,1.45215.53906,1.45215,1.71679v4.03711h-1.14453V11.56494c0-.60547-.15332-.99023-.71485-.99023-.59375,0-.85839.35156-.85839,1.32031v3.4541h-1.14356Z"/><path class="e5ffbe9e-cd24-40f6-a084-4a1aa9572b7d" d="M265.31505,9.69385h.75879V8.25342h1.13379V9.69385h.91308v.94629h-.91308v3.30078c0,.35254.06543.5498.48339.5498a1.6586,1.6586,0,0,0,.3418-.02148v.84668a2.02075,2.02075,0,0,1-.749.11035c-.82422,0-1.21-.30859-1.21-1.28711v-3.499h-.75879Z"/><path class="e5ffbe9e-cd24-40f6-a084-4a1aa9572b7d" d="M268.83458,11.60889c0-.91309,0-1.50781-.01074-1.915h1.08886a9.21706,9.21706,0,0,1,.03321.958,1.46124,1.46124,0,0,1,1.48535-1.0459v1.26562c-.93555,0-1.45215.38477-1.45215,1.44141v3.03613h-1.14453Z"/><path class="e5ffbe9e-cd24-40f6-a084-4a1aa9572b7d" d="M273.03673,12.79639c0,.84765.12109,1.706.90234,1.706a.84053.84053,0,0,0,.84668-.83691h1.10059a1.88613,1.88613,0,0,1-1.96973,1.79394c-1.77051,0-2.02441-1.541-2.02441-2.96,0-1.793.66015-2.90429,2.05761-2.90429,1.59571,0,1.98047,1.23242,1.98047,2.68457,0,.165-.01074.40722-.02246.5166Zm1.76074-.83594c0-.69336-.11035-1.41894-.84766-1.41894-.84668,0-.89062,1.01171-.90234,1.41894Z"/><path class="e5ffbe9e-cd24-40f6-a084-4a1aa9572b7d" d="M276.85313,17.40674V11.3335c0-.77051,0-1.28711-.01074-1.63965H277.943a5.43974,5.43974,0,0,1,.03222.67187,1.285,1.285,0,0,1,1.29883-.7705c1.05567,0,1.65039.92382,1.65039,2.83886,0,2.14453-.72656,3.02539-1.81543,3.02539a1.14438,1.14438,0,0,1-1.11132-.59472v2.542Zm2.00293-6.832c-.72656,0-.90234.69238-.90234,1.88086,0,1.30957.08789,2.02441.87988,2.02441.627,0,.93555-.7041.93555-1.99121C279.76915,11.11377,279.47227,10.57471,278.85606,10.57471Z"/><path class="e5ffbe9e-cd24-40f6-a084-4a1aa9572b7d" d="M281.88048,11.60889c0-.91309,0-1.50781-.01074-1.915h1.08886a9.541,9.541,0,0,1,.03321.958,1.46046,1.46046,0,0,1,1.48535-1.0459v1.26562c-.93555,0-1.45313.38477-1.45313,1.44141v3.03613h-1.14355Z"/><path class="e5ffbe9e-cd24-40f6-a084-4a1aa9572b7d" d="M286.08263,12.79639c0,.84765.12109,1.706.90136,1.706a.84154.84154,0,0,0,.84766-.83691h1.09961a1.885,1.885,0,0,1-1.96875,1.79394c-1.77149,0-2.02441-1.541-2.02441-2.96,0-1.793.66015-2.90429,2.05761-2.90429,1.59473,0,1.97949,1.23242,1.97949,2.68457,0,.165-.01074.40722-.02148.5166Zm1.75976-.83594c0-.69336-.11035-1.41894-.84668-1.41894-.84765,0-.8916,1.01171-.90234,1.41894Z"/><path class="e5ffbe9e-cd24-40f6-a084-4a1aa9572b7d" d="M289.899,11.45459c0-1.166,0-1.47461-.01074-1.76074h1.09961a4.66931,4.66931,0,0,1,.0332.63867,1.32573,1.32573,0,0,1,1.28711-.7373c.87989,0,1.45215.53906,1.45215,1.71679v4.03711h-1.14453V11.56494c0-.60547-.15332-.99023-.71484-.99023-.59375,0-.8584.35156-.8584,1.32031v3.4541H289.899Z"/><path class="e5ffbe9e-cd24-40f6-a084-4a1aa9572b7d" d="M295.8502,12.79639c0,.84765.1211,1.706.90137,1.706a.84155.84155,0,0,0,.84766-.83691h1.09961a1.885,1.885,0,0,1-1.96875,1.79394c-1.77149,0-2.02442-1.541-2.02442-2.96,0-1.793.66016-2.90429,2.05762-2.90429,1.59473,0,1.97949,1.23242,1.97949,2.68457,0,.165-.01074.40722-.02148.5166Zm1.75977-.83594c0-.69336-.11035-1.41894-.84668-1.41894-.84766,0-.8916,1.01171-.90234,1.41894Z"/><path class="e5ffbe9e-cd24-40f6-a084-4a1aa9572b7d" d="M303.484,13.72119c0,.792,0,1.3418.01075,1.62793h-1.08887a5.05579,5.05579,0,0,1-.05469-.66015,1.25619,1.25619,0,0,1-1.28711.75879c-.74805,0-1.4082-.35157-1.4082-1.69434V9.69385h1.14355v3.7959c0,.61621.14356.97949.6709.97949.53906,0,.86914-.30859.86914-1.32031V9.69385H303.484Z"/><path class="e5ffbe9e-cd24-40f6-a084-4a1aa9572b7d" d="M304.57286,11.60889c0-.91309,0-1.50781-.01074-1.915H305.651a9.54617,9.54617,0,0,1,.0332.958,1.46047,1.46047,0,0,1,1.48535-1.0459v1.26562c-.93555,0-1.45312.38477-1.45312,1.44141v3.03613h-1.14356Z"/><path class="e5ffbe9e-cd24-40f6-a084-4a1aa9572b7d" d="M308.71935,13.66553a.81632.81632,0,0,0,.82519.90234.64937.64937,0,0,0,.72656-.7041c0-.46191-.21972-.69336-.91308-.957-1.27637-.47266-1.60645-.92383-1.60645-1.73828a1.55418,1.55418,0,0,1,1.76074-1.57324,1.59349,1.59349,0,0,1,1.77051,1.70507h-1.09961a.71607.71607,0,0,0-.7041-.82519.56657.56657,0,0,0-.61621.61621c0,.38574.19824.57227.91309.83594,1.166.44043,1.62793.88086,1.62793,1.80468,0,1.08887-.68165,1.71583-1.91407,1.71583a1.69588,1.69588,0,0,1-1.89258-1.78223Z"/><path class="e5ffbe9e-cd24-40f6-a084-4a1aa9572b7d" d="M313.38341,7.52686v2.76172a1.33044,1.33044,0,0,1,1.29785-.69336c.90234,0,1.41992.57226,1.41992,1.749v4.00488h-1.14453V11.57568c0-.60546-.13184-1.001-.7373-1.001-.6377,0-.83594.50586-.83594,1.3418v3.43261H312.2506V7.52686Z"/><path class="e5ffbe9e-cd24-40f6-a084-4a1aa9572b7d" d="M317.29942,9.69385H318.443v5.65527h-1.14356Zm.01075-.91309V7.52686h1.14453v1.2539Z"/><path class="e5ffbe9e-cd24-40f6-a084-4a1aa9572b7d" d="M319.66368,17.40674V11.3335c0-.77051,0-1.28711-.01074-1.63965h1.10058a5.43741,5.43741,0,0,1,.03223.67187,1.285,1.285,0,0,1,1.29883-.7705c1.05566,0,1.65039.92382,1.65039,2.83886,0,2.14453-.72656,3.02539-1.81543,3.02539a1.14441,1.14441,0,0,1-1.11133-.59472v2.542Zm2.00293-6.832c-.72656,0-.90234.69238-.90234,1.88086,0,1.30957.08789,2.02441.87988,2.02441.62695,0,.93555-.7041.93555-1.99121C322.5797,11.11377,322.28282,10.57471,321.66661,10.57471Z"/><path class="e5ffbe9e-cd24-40f6-a084-4a1aa9572b7d" d="M207.26036,26.19385c0,.30859.0332.92383.04395,1.15527H206.2711a3.79827,3.79827,0,0,1-.05566-.56152,1.34153,1.34153,0,0,1-1.29785.66016,1.49378,1.49378,0,0,1-1.4961-1.66114c0-1.12207.76953-1.84765,2.22168-1.84765a3.51265,3.51265,0,0,1,.50684.02148v-.6709c0-.36328-.06641-.80273-.69336-.80273-.63867,0-.7041.42871-.7373.80273h-1.07813a1.617,1.617,0,0,1,1.85938-1.69433c1.166,0,1.75976.5498,1.75976,1.61718Zm-1.08887-1.39746a2.94949,2.94949,0,0,0-.47265-.02149c-.8252,0-1.14453.39551-1.14453.91309a.72981.72981,0,0,0,.72656.82519c.71484,0,.89062-.52832.89062-1.48535Z"/><path class="e5ffbe9e-cd24-40f6-a084-4a1aa9572b7d" d="M208.49181,23.45459c0-1.166,0-1.47461-.01075-1.76074h1.10059a4.86463,4.86463,0,0,1,.03223.63867,1.32729,1.32729,0,0,1,1.28808-.7373c.87989,0,1.45215.53906,1.45215,1.71679v4.03711h-1.14453V23.56494c0-.60547-.1543-.99023-.71484-.99023-.59473,0-.8584.35156-.8584,1.32031v3.4541h-1.14453Z"/><path class="e5ffbe9e-cd24-40f6-a084-4a1aa9572b7d" d="M217.36974,19.52686v6.293c0,.627,0,1.19921.01074,1.52929h-1.10059c-.01074-.14258-.03222-.46191-.03222-.66015a1.19392,1.19392,0,0,1-1.28711.75879c-1.17774,0-1.66211-1.04493-1.66211-2.98145,0-1.749.59472-2.87109,1.87109-2.87109.64844,0,.94531.25293,1.05566.49511V19.52686Zm-2.03516,6.94238c.74805,0,.92383-.59473.92383-2.02441,0-1.41895-.14356-1.87012-.8584-1.87012-.583,0-.94629.47265-.94629,1.91406C214.45372,25.90772,214.73985,26.46924,215.33458,26.46924Z"/><path class="e5ffbe9e-cd24-40f6-a084-4a1aa9572b7d" d="M221.8795,19.89014v7.459h-1.15527v-7.459Z"/><path class="e5ffbe9e-cd24-40f6-a084-4a1aa9572b7d" d="M223.04454,23.45459c0-1.166,0-1.47461-.01074-1.76074h1.10058a4.86287,4.86287,0,0,1,.03223.63867,1.3273,1.3273,0,0,1,1.28809-.7373c.87988,0,1.45215.53906,1.45215,1.71679v4.03711h-1.14454V23.56494c0-.60547-.15429-.99023-.71484-.99023-.59473,0-.8584.35156-.8584,1.32031v3.4541h-1.14453Z"/><path class="e5ffbe9e-cd24-40f6-a084-4a1aa9572b7d" d="M228.11583,23.45459c0-1.166,0-1.47461-.01074-1.76074h1.09961a4.66931,4.66931,0,0,1,.0332.63867,1.32572,1.32572,0,0,1,1.28711-.7373c.87988,0,1.45215.53906,1.45215,1.71679v4.03711h-1.14453V23.56494c0-.60547-.15332-.99023-.71485-.99023-.59375,0-.8584.35156-.8584,1.32031v3.4541h-1.14355Z"/><path class="e5ffbe9e-cd24-40f6-a084-4a1aa9572b7d" d="M237.05919,24.46631c0,2.03613-.72656,2.99316-2.0791,2.99316-1.35352,0-2.05762-.9248-2.05762-2.9707,0-1.98047.8252-2.89355,2.1123-2.89355C236.35509,21.59522,237.05919,22.57471,237.05919,24.46631Zm-2.98145.02246c0,1.32031.26368,2.002.92383,2.002.63867,0,.90235-.68164.90235-1.99121,0-1.32031-.26368-1.93652-.90235-1.93652C234.37462,22.563,234.07774,23.16846,234.07774,24.48877Z"/><path class="e5ffbe9e-cd24-40f6-a084-4a1aa9572b7d" d="M238.68614,21.69385c.38574,1.68359.8252,3.58691.94629,4.44531h.01074c.09961-.792.69336-2.98144,1.0127-4.44531h1.14355l-1.59472,5.65527h-1.23243l-1.50683-5.65527Z"/><path class="e5ffbe9e-cd24-40f6-a084-4a1aa9572b7d" d="M245.86974,26.19385c0,.30859.0332.92383.04394,1.15527H244.8795a3.80938,3.80938,0,0,1-.05469-.56152,1.34314,1.34314,0,0,1-1.29882.66016,1.49378,1.49378,0,0,1-1.4961-1.66114c0-1.12207.77051-1.84765,2.22266-1.84765a3.49136,3.49136,0,0,1,.50586.02148v-.6709c0-.36328-.06641-.80273-.69336-.80273-.6377,0-.7041.42871-.73633.80273H242.2506a1.61571,1.61571,0,0,1,1.85839-1.69433c1.167,0,1.76075.5498,1.76075,1.61718Zm-1.08887-1.39746a2.96908,2.96908,0,0,0-.47363-.02149c-.8252,0-1.14356.39551-1.14356.91309a.72909.72909,0,0,0,.72559.82519c.71484,0,.8916-.52832.8916-1.48535Z"/><path class="e5ffbe9e-cd24-40f6-a084-4a1aa9572b7d" d="M246.46251,21.69385h.75976V20.25342h1.13282v1.44043h.91308v.94629h-.91308v3.30078c0,.35254.0664.5498.48437.5498a1.64872,1.64872,0,0,0,.34082-.02148v.84668a2.01293,2.01293,0,0,1-.748.11035c-.8252,0-1.21-.30859-1.21-1.28711v-3.499h-.75976Z"/><path class="e5ffbe9e-cd24-40f6-a084-4a1aa9572b7d" d="M249.983,21.69385h1.14355v5.65527H249.983Zm.01074-.91309v-1.2539h1.14453v1.2539Z"/><path class="e5ffbe9e-cd24-40f6-a084-4a1aa9572b7d" d="M256.22032,24.46631c0,2.03613-.72656,2.99316-2.0791,2.99316-1.35352,0-2.05762-.9248-2.05762-2.9707,0-1.98047.8252-2.89355,2.11231-2.89355C255.51622,21.59522,256.22032,22.57471,256.22032,24.46631Zm-2.98144.02246c0,1.32031.26367,2.002.92382,2.002.63868,0,.90235-.68164.90235-1.99121,0-1.32031-.26367-1.93652-.90235-1.93652C253.53575,22.563,253.23888,23.16846,253.23888,24.48877Z"/><path class="e5ffbe9e-cd24-40f6-a084-4a1aa9572b7d" d="M257.16563,23.45459c0-1.166,0-1.47461-.01074-1.76074h1.09961a4.66931,4.66931,0,0,1,.0332.63867,1.32574,1.32574,0,0,1,1.28711-.7373c.87989,0,1.45215.53906,1.45215,1.71679v4.03711h-1.14453V23.56494c0-.60547-.15332-.99023-.71484-.99023-.59375,0-.8584.35156-.8584,1.32031v3.4541h-1.14356Z"/><rect class="aa5b1e68-b323-426b-9a8b-c075c298daa4" x="191.32508" y="1.41748" width="0.71955" height="32.81072"/><path d="M71.24565,4.06371l-2.05554-.59839V1.98225H77.22c5.23,0,7.16009,1.67071,7.16009,5.62007,0,3.69471-2.10955,5.61-6.24326,5.61H74.88829v5.91645l2.08136.5984v1.379H69.138v-1.379l2.10761-.5984Zm3.64264-.066v7.3876l3.82618-.283c.94994-.43745,1.92921-1.01159,1.92921-3.396,0-1.8025-.08389-3.7086-3.58117-3.7086Z"/><path d="M114.21574,12.96225h-2.59687v6.16649l2.08135.5984v1.379h-7.8316v-1.379l2.10761-.5984V4.06371l-2.08157-.59839V1.98225h8.383c4.96961,0,6.78116,1.76313,6.78116,5.15175,0,2.6185-1.02184,3.98165-3.3825,4.91753l3.5385,6.92111,2.28626.7545v1.379h-5.33051Zm-2.59687-8.9505V11.297l3.87176-.26025c1.22895-.60922,1.82143-1.58358,1.82143-3.59057,0-2.1075-.68058-3.43446-2.8663-3.43446Z"/><path d="M125.06142,19.72714l2.08157-.57236V4.06371l-2.05553-.59839V1.98225h9.24305c5.22975,0,8.28211,3.153,8.28211,9.353,0,7.01568-3.16471,9.77094-8.68085,9.77094h-8.87035Zm5.75025-15.71539v15.117h2.73819c1.87958,0,5.12018-.30489,5.12018-7.20728,0-5.43793-.97668-7.90971-5.12018-7.90971Z"/><path d="M77.23022,31.06945c0,2.32461-1.34442,3.17927-3.547,3.17927-2.21239,0-3.547-1.30343-3.547-3.17927V26.4089l-.99811-.31264v-.87774h4.07629v.87774l-.98594.31264v4.66055c0,1.20244.46136,1.85658,1.77189,1.85658.64055,0,1.72713-.2,1.72713-1.91673V26.4089l-.99811-.31264v-.87774h3.499v.87774l-.9981.31264Z"/><path d="M84.25959,28.66952v4.27694l.98615.30069v.86926h-3.439v-.86926l1.01-.30069V26.87787l-.42859-.53937-.59638-.18609v-.93389h2.25142l4.3407,5.45895V26.4089l-.99789-.30058v-.8898h3.43883v.8898l-.99789.30058v7.71957H88.66046Z"/><path d="M98.24644,32.94646l.9979.30069v.86926h-4.088v-.86926l.99789-.30069V26.397l-.99789-.30069v-.87774h4.088v.87774l-.9979.30069Z"/><path d="M153.30156,32.94646l.99789.30069v.86926h-4.088v-.86926l.99789-.30069V26.397l-.99789-.30069v-.87774h4.088v.87774l-.99789.30069Z"/><path d="M108.59945,34.11641h-1.92386l-2.82572-7.70751-.99789-.31264v-.87774h4.30463v.87774l-1.01006.31264,1.87564,5.48307,1.91191-5.48307-.99789-.31264v-.87774h3.499v.87774l-.99811.31264Z"/><path d="M116.69436,26.4089l-.99789-.30058v-.8898h6.98587l.07213,2.74751h-1.11775l-.5412-1.56908H118.7866v2.501h2.30864v1.26251H118.7866v2.81366h2.3691l.70936-1.55945h1.09386l-.15622,2.70171h-7.10623v-.86926l.99789-.249Z"/><path d="M131.3065,30.48508h-.75759v2.46138l.99789.30069v.86926h-4.088v-.86926l.99789-.30069V26.4089l-.99789-.30058v-.8898H131.523c2.489,0,3.2584.96193,3.2584,2.465a2.1324,2.1324,0,0,1-1.43954,2.32831l1.42758,2.90218,1.25036.38477v.81767h-3.00605Zm-.75759-4.07618v3.11425l1.40678-.12015a1.86629,1.86629,0,0,0,.69741-1.55115c0-.88979-.23432-1.44295-1.14813-1.44295Z"/><path d="M139.64149,31.35087h1.23632l.26463,1.25046a3.59918,3.59918,0,0,0,1.87792.51709,2.30927,2.30927,0,0,0,.28853-.01206,1.3391,1.3391,0,0,0,.55315-1.07013c0-2.08018-4.25661-1.15432-4.25661-4.19643,0-1.39483,1.27468-2.72948,3.39082-2.72948a5.53537,5.53537,0,0,1,2.41683.61323v2.3447h-1.16714l-.42084-1.491a4.0564,4.0564,0,0,0-1.442-.28863,1.6057,1.6057,0,0,0-.24051.01206,1.23,1.23,0,0,0-.58921,1.04612c0,1.7796,4.22054,1.14226,4.22054,4.1243,0,1.61122-1.455,2.76554-3.41493,2.76554a5.03775,5.03775,0,0,1-2.70536-.80561Z"/><path d="M161.36008,26.421h-1.15431l-.53037,1.58709h-1.11692V25.21852h7.75563v2.78953h-1.09932l-.5119-1.58709h-1.25057v6.5255l.99811.30069v.86926h-4.08824v-.86926l.99789-.30069Z"/><path d="M173.29077,30.68953,170.958,26.4089l-.99789-.31264v-.87774h4.30463v.87774l-1.01006.31264,1.467,2.89786,1.47891-2.89786-.99789-.31264v-.87774h3.511v.87774l-.9981.31264-2.34471,4.25662v2.28094l.99811.30069v.86926h-4.08824v-.86926l1.01006-.30069Z"/><polygon points="177.053 15.564 175.7 19.129 169.712 19.129 169.712 12.249 173.104 12.249 173.541 14.175 175.049 14.175 175.049 8.381 173.541 8.381 173.104 10.239 169.712 10.239 169.712 4.012 175.44 4.012 176.533 7.706 178.595 7.706 178.465 1.982 163.987 1.982 163.987 3.465 166.043 4.064 166.043 19.155 163.961 19.727 163.961 21.106 178.751 21.106 179.089 15.564 177.053 15.564"/><path d="M102.17305,14.52947c0,4.8519-2.31628,6.86288-7.06422,6.86288-4.37121,0-7.53238-1.74607-7.53238-6.35594V4.06371l-2.08157-.59839V1.98225h7.80578V3.46532l-2.08157.59839v10.9727c0,2.758,1.2749,3.96936,4.31914,3.96936,2.10052,0,4.033-1.23093,4.033-4.22294V4.06371l-2.05554-.59839V1.98225h6.739V3.46532l-2.08157.59839Z"/><path d="M160.26587,14.52947c0,4.8519-2.31629,6.86288-7.06422,6.86288-4.37121,0-7.53238-1.74607-7.53238-6.35594V4.06371l-2.08157-.59839V1.98225h7.80578V3.46532l-2.08157.59839v10.9727c0,2.758,1.27489,3.96936,4.31914,3.96936,2.10052,0,4.033-1.23093,4.033-4.22294V4.06371l-2.05553-.59839V1.98225h6.739V3.46532l-2.08157.59839Z"/><path d="M32.33437,34.1343l4.11762-9.673H43.2735c9.8728,0,13.6198-4.05353,16.21131-10.14036.95858-2.25337,2.56457-6.02548.444-9.23373-2.1085-3.19061-6.58651-3.55934-9.77248-3.55934H13.8966L8.78232,13.53792h6.56237l-3.65134,8.58074H5.11613L0,34.1343Z"/><path class="aa5b1e68-b323-426b-9a8b-c075c298daa4" d="M58.07016,6.31508c-1.15271-1.74625-3.669-2.55991-7.91292-2.55991H15.37069l-3.21755,7.55529H18.7155l-5.55084,13.0356H6.5893l-3.21849,7.5618H30.86214l3.22033-7.5618H27.41329l.89914-2.11129h14.962c9.62294,0,12.18936-4.1557,14.1604-8.78512,1.06075-2.49307,1.98217-5.09663.63533-7.13457m-25.107,4.99538H43.95156c1.51409,0,1.29761.75985,1.09883,1.23074A3.6952,3.6952,0,0,1,41.531,14.67756H31.53Z"/><path class="b411072e-90bb-49df-a650-c1138d93fcb6" d="M50.15724,4.91534H16.13514L13.905,10.15409h6.56422L13.93189,25.50435H7.3556l-2.233,5.24432H30.09676l2.232-5.24432H25.66148L27.548,21.0746H43.27443c9.01453,0,11.28094-3.81848,13.095-8.07918,1.815-4.2625,2.80235-8.08008-6.21219-8.08008M41.531,15.83585H29.77816l2.41967-5.68176H43.95156c2.0797,0,2.91846,1.06912,2.1633,2.84133A4.80854,4.80854,0,0,1,41.531,15.83585"/><path class="aa5b1e68-b323-426b-9a8b-c075c298daa4" d="M181.13806,34.09247a1.90816,1.90816,0,1,1,1.90819-1.90812A1.91031,1.91031,0,0,1,181.13806,34.09247Zm0-3.42049a1.51234,1.51234,0,1,0,1.51238,1.51237A1.51409,1.51409,0,0,0,181.13806,30.672Z"/><path class="aa5b1e68-b323-426b-9a8b-c075c298daa4" d="M180.89623,32.35877v.70913h-.37511V31.29767h.77853c.38535,0,.59351.21067.59351.48557a.42529.42529,0,0,1-.257.41883c.08738.0334.221.12329.221.44191v.08731a1.33907,1.33907,0,0,0,.02566.33661h-.36478a1.26441,1.26441,0,0,1-.036-.39825V32.644c0-.19268-.04881-.28521-.334-.28521Zm0-.30572h.3212c.20809,0,.29031-.07964.29031-.22615,0-.14387-.09505-.22609-.28264-.22609h-.32887Z"/></svg>